<svg xmlns="http://www.w3.org/2000/svg" width="22.579" height="27.745" viewBox="0 0 22.579 27.745">
  <path id="Path_923" data-name="Path 923" d="M255.446,129.984a6.285,6.285,0,0,1,3.008-5.286,6.442,6.442,0,0,0-5.1-2.748c-2.138-.235-4.206,1.292-5.31,1.292s-2.8-1.269-4.605-1.222a6.824,6.824,0,0,0-5.71,3.477c-2.467,4.275-.634,10.548,1.739,13.977,1.175,1.691,2.561,3.571,4.37,3.5,1.762-.07,2.42-1.128,4.559-1.128,2.115,0,2.726,1.128,4.582,1.081,1.9-.023,3.1-1.691,4.23-3.406a13.847,13.847,0,0,0,1.927-3.947A6.112,6.112,0,0,1,255.446,129.984Zm-3.478-10.313a6.2,6.2,0,0,0,1.41-4.44,6.388,6.388,0,0,0-4.089,2.114,5.9,5.9,0,0,0-1.457,4.275A5.209,5.209,0,0,0,251.969,119.672Z" transform="translate(-236.556 -115.232)" fill="#fff"/>
</svg>
